<svg width="3598" height="991" viewBox="0 0 3598 991" fill="none" xmlns="http://www.w3.org/2000/svg">
<path d="M310.3 917.539C306.3 917.039 301.5 911.839 299.9 906.039C299.2 903.639 298.7 897.539 298.8 892.539C298.8 887.439 298.6 883.239 298.2 883.239C297.8 883.239 296.5 884.239 295.4 885.539C294.2 886.739 291.9 888.439 290.4 889.239C288.8 890.039 284.4 892.539 280.5 894.839C266.8 902.939 256.5 907.639 249.9 908.739C247.8 909.139 245.8 909.839 245.4 910.339C245.1 910.839 243.4 911.239 241.5 911.239C239.6 911.239 237.8 911.739 237.5 912.239C237.2 912.839 235.1 913.239 233 913.239C230.9 913.239 229 913.639 228.8 914.139C228.6 914.639 222.4 914.739 213.5 914.239C200.2 913.539 197.8 913.139 192 910.639C188.4 909.039 184.2 906.939 182.7 906.039C181.3 905.039 179.4 904.239 178.6 904.239C177.8 904.239 177 903.939 176.8 903.539C176.5 902.839 168.9 896.339 163.5 892.239C162.5 891.439 160.1 889.239 158.2 887.539C156.3 885.739 154.5 884.239 154.1 884.239C153.7 884.239 152.8 883.339 152 882.239C151.2 881.139 150.2 880.239 149.7 880.239C148.4 880.239 144.4 875.339 138.6 866.739C126.2 848.139 123 824.039 129.1 795.739C131.2 786.339 136.8 769.139 140.7 760.339C143.4 754.139 142.7 752.339 138.3 754.039C134.5 755.539 120.1 755.739 116.7 754.339C115.1 753.739 113.5 753.239 113 753.239C112.5 753.239 111.2 751.939 110.1 750.339C108.5 748.139 108 745.939 108 740.839C108 734.539 111.1 717.139 112.9 712.739C113.4 711.639 114.4 709.139 115.1 707.239C117.6 700.139 125.8 684.539 131.2 676.239C136.4 668.339 147.8 654.639 150.5 653.039C151.2 652.639 153.5 650.639 155.6 648.539C177.7 627.139 205 614.639 235.4 611.839C262 609.439 308 613.039 308 617.439C308 618.839 307.5 619.139 305.7 618.739C304.5 618.439 301.8 618.839 299.8 619.739C297.7 620.539 294.8 621.239 293.3 621.239C291.8 621.239 289.6 621.939 288.6 622.739C287.5 623.539 285.7 624.239 284.6 624.239C282.3 624.239 275.4 626.439 274.4 627.539C274 627.939 272.7 628.239 271.4 628.239C269.3 628.239 255.5 633.639 253.5 635.339C252.9 635.739 250.5 636.439 248.2 636.839C245.9 637.239 244 637.839 244 638.339C244 638.739 242.3 639.839 240.3 640.739C238.2 641.639 235.6 642.939 234.5 643.539C233.4 644.139 229.7 646.039 226.4 647.739C223 649.439 219.5 651.639 218.6 652.539C217.6 653.439 216.2 654.239 215.4 654.239C214.6 654.239 214 654.739 214 655.239C214 655.839 213.3 656.239 212.5 656.239C211.8 656.239 210.7 656.839 210.3 657.639C209.9 658.439 207.6 660.439 205.3 662.139C202.9 663.839 201 666.039 201 667.039C201 668.439 201.9 668.739 206.9 668.739C210.7 668.639 213.6 668.039 215.4 666.939C216.9 665.939 218.5 665.439 219.1 665.739C219.6 666.139 222.2 665.739 224.8 664.939C230.4 663.039 248.5 657.939 255.5 656.239C258.3 655.539 261.3 654.239 262.2 653.439C263.9 652.039 267 652.339 267 653.939C267 655.539 258.8 663.239 256.4 663.839C255.1 664.139 254 664.739 254 665.139C254 665.439 252.7 666.339 251.1 667.039C247.6 668.539 217 697.539 217 699.339C217 699.739 215.5 701.539 213.8 703.439C209.5 707.839 203.4 716.539 202.5 719.339C201.8 721.339 202 721.439 205.6 720.739C210.3 719.939 216.6 716.339 220.5 712.239C222.1 710.639 225.2 708.339 227.4 707.239C229.7 706.139 233.9 703.439 236.8 701.239C239.7 699.039 242.4 697.239 242.9 697.239C243.4 697.239 244.3 696.539 245 695.739C245.7 694.839 247.9 693.439 249.9 692.539C251.9 691.639 256.7 688.839 260.5 686.339C270.5 679.839 274 678.039 275.6 678.639C277.3 679.239 276.3 681.139 266.5 696.739C264.8 699.539 261.9 704.939 260 708.739C258.2 712.639 255.9 716.839 254.9 718.139C253.8 719.439 253 721.239 253 722.039C253 722.939 252.3 724.339 251.4 725.339C250 726.939 249.3 728.839 247.3 736.839C247 738.239 247.4 739.139 248.4 739.539C250.7 740.439 270.6 720.139 286.3 700.739C289 697.439 292.5 693.539 294.1 692.039C295.7 690.539 297 689.039 297 688.739C297 688.439 301.3 683.239 306.5 677.239C311.7 671.239 316.5 665.439 317.2 664.239C319.3 660.839 327.9 655.939 334.9 654.039C342.6 652.039 345 651.839 345 653.239C345 653.839 344.3 654.239 343.4 654.239C342.6 654.239 342.2 654.639 342.5 655.239C343.1 656.139 336 667.539 334 668.739C333.5 669.039 333 670.039 333 670.939C333 671.739 331.2 674.939 329 678.139C326.8 681.239 325 684.139 325 684.539C325 684.939 321.5 690.539 317.2 696.939C312.9 703.439 308.8 710.039 308 711.739C307.2 713.339 305.8 715.539 305 716.539C303.1 718.839 299.4 724.939 297.6 728.739C296.8 730.439 295.2 733.039 294 734.539C292.8 736.039 290.8 739.239 289.6 741.539C286.7 747.139 284.7 750.439 283.3 751.939C282.7 752.639 281.8 754.239 281.4 755.539C281 756.739 279.9 758.839 278.9 760.139C276.5 763.139 276.5 765.239 278.7 765.239C280.6 765.239 298 747.739 298 745.839C298 745.139 299.6 743.139 301.5 741.339C303.5 739.539 306.3 736.339 307.8 734.339C309.2 732.339 313.5 727.039 317.2 722.639C320.9 718.139 324 714.039 324 713.539C324 713.039 325.2 711.539 326.6 710.139C328 708.839 330.1 706.239 331.2 704.239C332.4 702.339 334.5 699.439 336 697.739C337.5 696.139 339.6 693.139 340.8 691.239C341.9 689.239 344 686.639 345.4 685.339C346.8 683.939 348 682.339 348 681.539C348 680.839 348.4 680.239 349 680.239C350.2 680.239 358 668.339 358 666.539C358 665.839 359.1 664.539 360.4 663.739C361.7 662.839 363 661.239 363.3 660.239C364.2 656.739 367.1 658.039 374.1 665.139C380.1 671.139 381 672.539 381 675.739C381 677.839 380.4 679.539 379.6 679.839C378.8 680.139 376.9 682.239 375.3 684.539C372 689.439 367.1 696.039 365.2 698.139C363.7 699.739 359.5 705.839 356.7 710.639C355.6 712.339 353.8 714.839 352.6 716.239C350.6 718.439 348.7 721.139 345.5 726.039C345 726.939 341.5 732.239 337.8 737.839C334 743.539 331 748.339 331 748.639C331 748.839 328.8 752.739 326 757.239C323.3 761.739 321 765.539 321 765.839C321 766.039 321.8 766.239 322.8 766.239C324.6 766.239 331 760.439 331 758.739C331 758.139 333.5 755.139 336.5 751.939C339.5 748.639 342 745.739 342 745.439C342 745.039 343.8 742.839 346 740.439C348.2 738.039 350 735.939 350 735.639C350 735.439 352.9 732.139 356.5 728.439C360.1 724.839 363 721.239 363 720.539C363 719.939 363.8 718.739 364.8 718.039C365.7 717.339 367.8 714.839 369.4 712.439C371.1 710.039 373.6 707.139 375.1 705.939C376.5 704.739 379.4 701.339 381.5 698.539C383.7 695.339 385.9 693.239 387 693.239C388.7 693.239 388.9 693.939 388.6 700.239C388.4 704.539 387.6 708.139 386.6 709.639C385.7 711.039 385 712.439 385 712.739C385 713.039 382.3 717.339 379 722.239C375.7 727.139 373 731.539 373 732.039C373 732.539 372.4 733.539 371.6 734.139C370.8 734.839 369.2 737.239 368 739.539C366.8 741.839 364.3 746.039 362.4 748.939C360.5 751.739 359 754.339 359 754.639C359 754.939 357.7 757.339 356 759.939C354.4 762.539 353 765.439 353 766.439C353 767.439 352.6 768.239 352.2 768.239C351.2 768.239 349 772.739 349 774.739C349 777.639 351 776.139 360.3 766.539C376.7 749.439 379 746.839 381.2 743.039C383.5 738.939 383.8 738.839 386 740.239C387.2 740.939 387.2 741.739 386.3 744.439C385.6 746.239 384.6 750.639 383.9 754.239C383.3 757.839 382.3 761.839 381.8 763.239C381.2 764.639 379.7 769.339 378.5 773.739C377.2 778.139 375.6 783.239 374.9 784.939C373.3 788.939 374.8 791.439 377.5 789.239C378.3 788.539 379 787.539 379 786.939C379 786.339 379.8 784.939 380.9 783.839C384.4 779.839 389.7 771.639 391.1 767.939C391.8 765.939 392.8 764.239 393.2 764.239C393.6 764.239 394 763.439 394 762.439C394 761.439 394.4 760.239 394.9 759.739C396.4 758.039 402 742.339 402 739.739C402 737.539 402.4 737.139 404.3 737.439C406.3 737.739 406.5 738.239 406.6 744.739C406.6 748.639 407 752.539 407.4 753.539C407.9 754.539 408 758.639 407.7 762.539C407.3 769.139 408.6 776.439 409.7 773.539C410 772.839 410.8 772.239 411.6 772.239C412.3 772.239 413.2 771.039 413.5 769.539C413.9 767.939 414.5 765.939 415.1 765.039C415.6 764.039 416 762.439 416 761.339C416 760.339 416.7 757.839 417.5 755.939C418.3 753.939 419 750.039 419 747.239C419 744.239 419.4 742.239 420.1 742.239C420.7 742.239 421 742.939 420.7 743.739C420.3 744.539 420.5 745.439 420.9 745.739C422.3 746.539 423.2 778.839 422.1 791.739C420.6 810.439 415.6 826.639 405.7 845.239C396.6 862.139 379.9 881.539 363 894.939C354.8 901.439 344.3 907.839 340.5 908.839C339.1 909.139 337.7 909.839 337.4 910.339C337.1 910.839 336.2 911.239 335.3 911.239C334.5 911.239 332.6 912.039 331.2 913.039C328.9 914.539 322.9 916.239 315 917.639C314.2 917.739 312.1 917.739 310.3 917.539Z" fill="white"/>
<path d="M569 916.739C562.2 915.539 553.7 912.139 552.6 910.339C552.2 909.739 551.2 909.239 550.4 909.239C549.6 909.239 546.4 907.639 543.4 905.739C540.4 903.839 537.6 902.239 537.1 902.239C536.6 902.239 535.7 901.539 535 900.739C534.4 899.939 531.3 897.639 528.2 895.539C511.1 884.239 489.8 857.939 480 836.239C473 820.739 472.7 819.839 471.9 816.239C471.5 814.339 470.4 809.639 469.5 805.739C467.4 796.839 467 760.239 468.9 746.239C470.2 736.039 472.4 724.639 473.9 719.739C477.6 707.439 489.6 681.939 491.4 682.539C492 682.739 493 685.339 493.6 688.339C494.3 691.339 495.7 696.239 496.9 699.339C502.2 713.839 515.5 738.239 518.1 738.239C519.3 738.239 518.9 733.639 517.2 728.739C516.6 727.139 515.4 723.539 514.5 720.739C512.2 714.139 511.5 710.239 512.7 710.239C514 710.239 516.2 712.939 518 716.739C522.1 725.039 547 755.239 549.8 755.239C551.6 755.239 548.7 749.939 537.5 732.239C533.3 725.739 528 716.139 528 715.139C528 713.339 529.4 714.439 539.5 724.039C549.9 734.139 565.5 747.239 567.1 747.239C567.9 747.239 567.2 744.139 566 743.239C565.7 742.939 563.7 740.439 561.5 737.739C556.6 731.539 542.3 714.839 535.4 707.339C525.1 695.939 517.7 686.839 516.4 683.639C514.9 679.939 514.6 677.239 515.8 677.239C516.2 677.239 521.7 682.239 528 688.339C546.5 706.039 579.7 737.439 584.5 741.639C587 743.839 589.3 745.239 589.6 744.939C590.4 744.239 587.9 740.239 584 735.839C557.1 705.339 548 695.539 524.4 671.439C516.5 663.439 515.3 661.839 515.8 659.439C516.4 656.139 521.9 648.239 523.5 648.239C524.8 648.239 534.9 658.339 553.1 678.039C574 700.539 616.6 741.639 624.3 746.739C628.8 749.639 629.3 747.939 625.4 742.739C617.7 732.539 601.8 713.739 576.5 684.839C573.2 681.139 568.9 676.139 567 673.739C554.9 659.039 547.3 650.339 544.2 647.539C541.6 645.239 540.8 644.039 541.6 643.239C543.1 641.739 554.8 646.139 560.8 650.439C563.4 652.339 566.3 654.139 567.3 654.539C568.2 654.839 569 655.839 569 656.739C569 657.539 569.4 658.239 569.9 658.239C570.3 658.239 575.2 662.639 580.6 668.039C608.2 695.439 647.5 731.239 650 731.239C652.3 731.239 651.7 727.439 648.4 722.039C643.7 714.339 629.5 695.539 618.6 682.439C613.9 676.839 610 671.939 610 671.739C610 670.439 613 671.539 617.2 674.539C619.7 676.339 623.9 678.739 626.4 679.739C628.9 680.839 631 682.039 631 682.439C631 682.839 633.2 684.339 635.9 685.739C638.6 687.039 641.1 688.639 641.5 689.239C641.9 689.839 644.7 691.639 647.8 693.239C654.5 696.839 671.2 707.039 672 708.039C673.2 709.639 684.1 716.239 685.5 716.239C686.3 716.239 687.9 717.139 689 718.239C691.4 720.639 692.6 720.739 693.4 718.739C694 717.139 688.2 710.239 676 698.239C670.3 692.539 666.9 689.539 654.2 678.539C652.7 677.239 651 676.239 650.3 676.239C649.7 676.239 649 675.939 648.8 675.439C648.4 674.439 635.2 664.239 634.3 664.239C633.8 664.239 632.3 663.139 631 661.939C629.6 660.639 627.3 658.939 625.8 658.139C624.4 657.339 621.3 655.639 618.9 654.339C612 650.639 611.1 648.239 616.5 648.239C618.4 648.239 620 648.639 620 649.139C620 649.639 622.6 650.839 625.8 651.739C641.9 656.439 652.2 659.739 658.9 662.339C662.9 663.939 667.8 665.239 669.6 665.239C671.5 665.239 673 665.739 673 666.339C673 666.839 673.5 667.039 674 666.739C674.6 666.439 675.6 666.439 676.3 666.939C676.9 667.339 679 668.239 680.9 668.939C683.7 669.939 684.5 669.839 685.9 668.539C687.3 667.139 687 666.539 682.6 662.639C680 660.239 677.2 658.239 676.4 658.239C675.6 658.239 675 657.839 675 657.439C675 656.939 673.1 655.739 670.9 654.639C668.6 653.639 666.2 652.339 665.6 651.739C662.8 649.239 629.3 632.239 627.2 632.239C626.5 632.239 626 631.839 626 631.239C626 630.739 625.4 630.239 624.7 630.239C623.9 630.239 618.9 628.439 613.4 626.239C608 623.939 600.1 621.239 596 620.139C588.8 618.139 586 616.839 586 615.239C586 613.339 607.9 611.739 634.5 611.839C661.8 611.839 662.8 611.939 673.5 614.639C679.6 616.139 685.9 618.039 687.5 618.739C689.2 619.439 692.5 620.839 695 621.839C697.5 622.839 703 625.839 707.3 628.439C711.6 631.039 715.5 633.239 715.9 633.239C716.3 633.239 717.5 634.139 718.5 635.239C719.5 636.339 720.7 637.239 721.2 637.239C722.6 637.239 728.1 642.239 742 656.239C754.7 669.039 760.3 676.739 768.3 692.739C777 710.239 782 727.639 782 740.639C782 753.939 774.7 756.939 749 754.039C746 753.639 745.9 753.339 751.1 765.639C758.7 783.939 764 806.739 764 820.939C764 830.939 761.3 848.039 759 852.739C757.9 855.039 757 857.239 757 857.639C757 858.039 754.3 862.339 751 867.039C745.5 875.139 740.4 880.539 731.5 887.739C729.5 889.439 725 893.339 721.4 896.539C717.9 899.639 714.6 902.239 714 902.239C713.4 902.239 711 903.539 708.7 905.139C704.4 908.039 698 911.139 694.6 911.839C693.6 912.039 691.1 912.739 689.2 913.339C684.9 914.739 651.7 913.739 651.2 912.239C651 911.639 649.9 911.239 648.7 911.239C646.1 911.239 635.4 907.939 630.1 905.639C616.1 899.339 605 893.139 604.2 891.039C604 890.639 603.2 890.239 602.4 890.239C601.1 890.239 597.2 888.439 596 887.239C595.7 886.939 594.4 885.839 593.1 884.739L590.7 882.739L591.3 889.239C591.9 894.939 591.2 899.939 588.9 909.239C588.7 910.039 587.7 911.339 586.8 912.039C585.8 912.739 585 914.039 585 914.739C585 916.139 583.7 916.639 577.8 917.639C576.5 917.839 572.6 917.439 569 916.739Z" fill="white"/>
<path d="M139 596.24C138.2 595.74 136 595.24 134.3 595.24C128.9 595.24 109.7 590.34 99 586.24C86.1 581.34 69.4 571.64 64.6 566.34C63.5 565.24 62.2 564.24 61.6 564.24C59.7 564.24 37.6 541.24 35.9 537.44C32.7 530.64 36.2 521.14 43.3 517.24C51.4 512.84 54.9 511.24 56.8 511.24C58.6 511.24 60 509.44 60 507.14C60 506.64 59.3 506.24 58.5 506.24C57.6 506.24 56.7 505.54 56.4 504.74C56 503.94 55.4 503.24 54.8 503.24C51.1 503.24 28.4 481.44 17.4 467.34C11 459.14 6.5 450.44 2.6 438.74C0.5 432.44 0 429.14 0 420.94C0 407.84 1.3 399.34 5 389.74C7 384.44 8.3 380.34 9.4 376.74C11.7 369.24 13.7 365.04 19.1 356.24C24.1 348.04 36.1 335.24 38.7 335.24C39.4 335.24 41.6 334.24 43.7 333.04C50.8 329.04 57.5 326.04 63.5 324.24C65.7 323.54 68 322.64 68.5 322.24C69.1 321.84 72.2 321.24 75.4 320.84C78.7 320.44 82.8 319.44 84.7 318.64C87.5 317.24 90.6 317.14 104.8 317.64C114 318.04 122.7 318.54 124.1 318.84C128 319.64 128.5 316.24 125 311.54C119.6 303.94 117.4 288.04 121.2 283.44C123.6 280.64 132.6 277.34 141 276.24C149.2 275.14 179.6 275.04 181.4 276.04C182 276.34 184.7 276.74 187.4 276.84C190.2 277.04 192.6 277.64 192.8 278.14C193 278.74 194 279.24 195.1 279.24C199.1 279.24 212.8 283.44 221.5 287.44C226.5 289.64 231.9 291.94 233.5 292.64C235.2 293.24 238.1 294.94 240 296.34C241.9 297.84 244.6 299.54 246 300.24C252.6 303.64 277 324.44 277 326.64C277 327.04 278.4 328.84 280 330.64C281.7 332.44 284.5 336.14 286.2 338.84C292.1 348.24 305.8 375.84 309 384.74C311.9 393.04 317 415.04 317 419.34C317 422.74 314.3 421.34 307.4 414.44C299.4 406.64 291.6 400.24 290.1 400.24C289.5 400.24 289 399.84 289 399.44C289 398.24 280.2 392.24 278.5 392.24C277.7 392.24 277 391.84 277 391.24C277 390.74 276.3 390.24 275.5 390.24C274.7 390.24 274 389.74 274 389.24C274 388.64 272.8 387.74 271.3 387.24C267.7 385.94 263.8 384.04 262.2 382.84C259.4 380.74 248 377.64 247 378.64C245.6 380.04 245.7 380.94 247.5 383.04C253.1 389.34 262.9 400.14 265.1 402.44C266.6 403.94 267.6 405.34 267.3 405.54C267.1 405.74 268.6 407.44 270.7 409.34C272.8 411.14 274.5 412.94 274.5 413.34C274.5 413.74 274.8 414.44 275.3 414.84C275.7 415.24 276 416.24 276 416.94C276 419.14 271.5 418.04 264 414.04C260.4 412.14 253.5 409.44 248.5 407.84C243.6 406.34 237.8 404.44 235.8 403.74C229.5 401.34 211.1 398.94 209.4 400.34C207.4 401.94 207.6 402.94 210.4 404.44C235.1 417.64 255.9 430.44 256 432.54C256 434.54 255.4 434.54 244 433.24C234.3 432.14 209.3 431.84 206.7 432.84C203.8 433.94 204.7 437.04 208.3 438.14C210 438.64 214.7 440.24 218.5 441.64C222.4 442.94 230.5 445.54 236.5 447.24C242.6 448.94 250.2 451.24 253.5 452.34C256.8 453.44 263.8 455.44 269 456.84C280.9 459.94 291 463.44 291 464.44C291 464.94 291.6 465.24 292.4 465.24C293.1 465.24 295.4 467.34 297.4 469.94C302.1 476.04 301.2 477.44 292.6 476.64C289.3 476.34 284.3 475.44 281.5 474.74C278.8 473.94 272.7 472.84 268 472.24C263.3 471.54 257.3 470.44 254.5 469.64C251.8 468.84 246.8 467.84 243.5 467.34C240.2 466.84 230.1 465.14 221 463.44C199.1 459.44 194 458.84 194 460.14C194 460.74 195 461.84 196.3 462.64C204.1 467.74 266.6 488.44 289.2 493.34C299.7 495.64 303 496.84 303 498.34C303 500.24 297.8 508.24 294 512.14C290.3 515.94 288.8 516.44 285.5 514.64C284.4 514.04 281.3 512.84 278.5 511.94C275.8 511.04 270.1 509.14 266 507.64C257.6 504.74 246.9 501.34 221 493.44C209.5 489.94 203.1 488.74 201.8 490.04C201 490.84 201.3 491.44 203.1 492.14C211 495.34 230.3 503.74 234.5 505.64C237.3 506.94 242 509.04 245 510.24C248 511.54 254.2 514.34 258.7 516.44C263.2 518.54 267.4 520.24 268 520.24C268.6 520.24 270.5 520.94 272.1 521.84C274.4 523.04 274.9 523.64 274.1 524.64C272.7 526.34 261.7 527.54 258.8 526.34C257.5 525.84 249.8 523.24 241.5 520.74C233.3 518.14 224.7 515.44 222.5 514.74C218.4 513.34 212.1 511.54 206.3 510.24C203.5 509.54 203 509.74 203 511.24C203 512.54 206.5 515.04 214.8 519.64C221.2 523.34 228.2 526.74 230.3 527.44C234.7 528.74 235.1 531.84 231 531.64C229.6 531.54 223.1 531.14 216.5 530.74C198.2 529.54 197.5 529.54 197.5 531.14C197.5 534.04 228.8 544.24 237.7 544.24C240.4 544.24 241.1 544.64 240.8 546.04C240.6 547.24 239.2 547.84 235.5 548.24C232.7 548.54 229.8 549.24 229 549.74C228.2 550.24 225.6 550.74 223.1 550.84C218.7 551.04 215 553.64 216.8 555.44C217.2 555.84 221.3 556.94 225.9 557.74C234.2 559.34 249.3 559.34 253.3 557.74C255.3 556.94 255.5 558.04 253.7 560.34C252.4 561.94 243.6 568.24 242.5 568.24C242.2 568.24 238.2 570.64 233.7 573.64C218.3 583.74 202.6 590.94 191.5 592.84C189.3 593.24 187 593.84 186.4 594.34C183.4 596.74 142.3 598.34 139 596.24Z" fill="white"/>
<path d="M710 596.64C700.9 595.64 695.5 593.84 692.2 590.64C690.4 588.74 687.1 586.84 684.7 586.24C682.4 585.54 679.2 584.54 677.5 583.74C675.9 583.04 672 581.74 668.9 580.84C665.9 579.94 662.3 578.14 661.1 576.84L658.8 574.44L660.9 573.74C662.1 573.44 663.8 573.34 664.9 573.74C668.1 574.74 691.8 572.44 695.1 570.84C696.8 569.94 698.6 569.54 699.1 569.84C700.1 570.44 710.1 567.74 714.7 565.54C716.6 564.54 717.6 563.44 717.3 562.64C716.9 561.54 712.6 561.24 694.8 561.24C676.5 561.24 672.4 560.94 669.8 559.64C666.8 558.04 666.7 557.94 668.5 556.64C669.5 555.84 671.4 555.24 672.7 555.24C674 555.24 675.8 554.84 676.8 554.34C684.1 550.74 687.4 549.24 688.4 549.24C689.1 549.24 690.5 548.34 691.5 547.24C692.4 546.24 695.6 544.64 698.5 543.74C703.8 542.24 710.6 537.04 709.6 535.44C709.3 534.84 706.1 535.24 702.3 536.24C698.5 537.14 692.8 538.54 689.5 539.14C686.2 539.84 681.2 541.04 678.4 541.84C675.6 542.64 671.8 543.24 669.9 543.24C668 543.24 665.6 543.94 664.6 544.74C663.6 545.54 662.3 545.94 661.8 545.64C661.3 545.34 660.3 545.54 659.5 546.24C658.8 546.84 657 547.54 655.5 547.84C654 548.14 650.3 549.04 647.2 549.94C639 552.24 630.3 552.74 628.2 550.94C627.3 550.24 625.7 549.24 624.8 548.94C621.1 547.64 623.2 545.14 629.5 543.44C635.6 541.84 640.9 539.74 642.2 538.44C642.9 537.74 644 537.24 644.7 537.24C645.4 537.24 648 536.14 650.5 534.74C653 533.34 655.5 532.44 656.1 532.84C656.7 533.14 657.9 532.84 658.8 532.04C661.5 529.94 664.9 528.24 666.5 528.24C667.3 528.24 669.4 527.64 671.2 526.84C674.2 525.44 696.6 516.54 703.5 513.84C706.7 512.64 710 509.84 710 508.24C710 506.84 709.3 506.94 699.9 509.64C695.3 510.94 689.3 512.54 686.5 513.24C683.8 513.94 681 514.94 680.5 515.34C679.9 515.74 677.4 516.24 675 516.34C672.5 516.54 669.2 517.44 667.5 518.44C665.9 519.44 663.5 520.24 662.3 520.24C661.1 520.24 659.8 520.74 659.4 521.34C659.1 521.94 657.8 522.14 656.6 521.84C655.4 521.54 653.1 522.04 651.5 522.94C649.8 523.74 646 525.04 643 525.74C634.2 527.84 613.6 535.34 612.3 536.94C611.7 537.74 610.4 538.24 609.4 538.04C607.8 537.74 601.8 530.64 600.4 527.24C600 526.44 598.5 524.44 597.1 522.94C593.7 519.14 594.9 517.54 603.2 514.84C606.9 513.64 610.2 512.34 610.6 511.94C611 511.54 612.4 511.24 613.7 511.24C616.4 511.24 629.3 507.04 633.8 504.64C635.3 503.94 637.7 503.24 639.2 503.24C640.7 503.24 642.2 502.84 642.5 502.24C642.8 501.74 643.8 501.24 644.6 501.24C645.4 501.24 648 500.34 650.2 499.24C652.5 498.14 655.2 497.24 656.2 497.24C658.2 497.24 675 490.34 682.3 486.54C685 485.14 687.4 484.24 687.6 484.54C688.4 485.34 700.4 480.24 701.7 478.54C702.4 477.64 704 476.84 705.4 476.74C706.8 476.54 708.9 475.74 710.2 474.84C711.4 473.94 713.2 473.24 714.2 473.24C716.8 473.24 721.6 468.44 720.3 467.14C719.6 466.44 718.6 466.34 717.4 467.04C716.3 467.54 712.4 468.24 708.6 468.64C704.8 469.04 699.6 470.24 697.1 471.44C694.6 472.64 690.8 473.64 688.7 473.74C686.6 473.74 684.6 474.34 684.2 474.94C683.8 475.54 681.9 476.24 680 476.54C674.7 477.44 664.9 479.84 661.6 481.14C660 481.74 657.9 482.04 656.8 481.64C655.7 481.34 654.1 481.74 653.2 482.54C652.3 483.34 649 484.34 646 484.74C643 485.14 639.8 486.04 639 486.74C637.6 487.84 635.7 488.34 625 489.94C623.1 490.24 621.1 490.84 620.5 491.24C620 491.64 617.7 492.34 615.5 492.74C613.4 493.04 610.3 494.04 608.8 494.84C605.6 496.44 597.4 496.74 596.5 495.14C595.8 494.14 599.9 487.24 601.3 487.24C601.7 487.24 602 486.64 602 485.94C602 483.74 608.2 478.54 612.5 477.14C614.7 476.44 617.6 475.04 618.9 474.04C620.2 473.04 621.8 472.24 622.4 472.24C623.1 472.24 625.5 471.34 627.8 470.24C630.2 469.04 632.4 468.44 632.9 468.64C633.4 468.94 634.3 468.64 634.9 467.84C635.5 467.14 638.6 465.74 641.8 464.74C644.9 463.74 648.9 462.14 650.5 461.14C654.7 458.54 660 456.24 661.6 456.24C662.3 456.24 663.1 455.84 663.4 455.34C663.7 454.84 665.9 453.94 668.3 453.34C670.8 452.74 673.3 451.64 674 450.74C674.7 449.94 675.8 449.24 676.5 449.24C677.2 449.24 679.8 448.04 682.4 446.64C684.9 445.24 687.4 444.34 687.9 444.64C688.4 445.04 690.2 444.14 691.9 442.64C693.6 441.24 695.4 440.34 696 440.74C696.5 441.04 697 440.94 697 440.34C697 439.84 698.7 438.54 700.8 437.54C703 436.44 704.6 434.94 704.8 433.64C705.1 431.64 704.7 431.54 698.2 431.74C694.3 431.94 690.8 432.24 690.2 432.64C689.6 432.94 687.9 433.44 686.3 433.74C684.8 433.94 681.3 434.64 678.5 435.24C675.8 435.84 673 436.04 672.3 435.84C671.6 435.54 669.8 435.94 668.3 436.74C666.8 437.54 664.1 438.24 662.3 438.24C660.6 438.24 658.9 438.64 658.6 439.14C658.3 439.64 656.2 440.34 654 440.64C651.8 440.94 648.2 441.54 646 441.84C638.1 443.04 638.2 441.74 646.1 434.14C654.8 425.84 666.4 416.24 667.9 416.24C668.5 416.24 669 415.84 669 415.44C669 414.54 683.6 402.94 685.6 402.14C686.2 401.94 690 398.74 694 395.04C701.7 387.94 702.4 385.64 696.4 386.54C694.6 386.84 691.4 387.84 689.3 388.74C682.2 391.94 681.5 392.14 677.4 393.24C675.1 393.74 672.7 394.94 672 395.74C671.3 396.54 669.9 397.24 668.9 397.24C667.9 397.24 666.8 397.74 666.5 398.24C666.2 398.84 662.4 400.84 658.2 402.84C654 404.84 650.4 406.84 650.2 407.34C650 407.84 649.4 408.24 648.8 408.24C648.2 408.24 646.2 409.34 644.4 410.74C642.6 412.14 640.8 413.24 640.4 413.24C640 413.24 636.7 415.64 633.1 418.64C620.5 428.84 613.5 430.24 620.8 421.24C622.3 419.34 624.4 416.04 625.5 413.94C626.6 411.84 628.9 408.44 630.5 406.44C632.2 404.34 634.4 400.94 635.5 398.84C636.6 396.74 638.7 393.64 640.2 391.94C641.8 390.34 643 388.74 643 388.34C643 388.04 644.8 385.14 647 381.84C650.9 376.14 652 371.94 650.1 370.74C649.6 370.44 648.9 370.64 648.6 371.14C648.3 371.54 646.8 372.24 645.3 372.54C643.7 372.94 641 374.54 639.1 376.24C637.3 377.84 635.4 379.24 634.9 379.24C633.9 379.24 607.5 405.54 603.2 410.74C601.4 412.94 598.8 416.14 597.4 417.74C593.6 422.24 589 428.94 589 430.04C589 430.64 588.6 431.24 588.2 431.44C587.2 431.84 581 440.84 581 441.94C581 442.34 579.6 444.54 578 446.64C576.3 448.84 575 451.24 575 451.94C575 453.44 571 459.24 570 459.24C569.6 459.24 569 453.44 568.6 446.44C567.5 426.34 570.2 404.64 575.8 388.24C579.3 378.04 587.2 360.24 589.8 356.44C590.9 354.94 593 351.34 594.5 348.34C603.2 330.94 621.4 311.64 639.8 300.14C645.1 296.94 666.9 286.04 671.5 284.44C691.5 277.44 702.1 275.74 727 275.74C744.9 275.74 749.1 276.04 752 277.44C753.9 278.34 757.1 279.54 759 280.14C765.4 282.24 767 284.64 767 292.64C767 300.24 764.8 306.34 759.6 313.24C755.7 318.44 757.1 319.04 771.5 318.24C786.8 317.44 801.8 317.84 803.3 319.04C804 319.64 806.8 320.34 809.5 320.74C812.3 321.14 815 321.84 815.5 322.24C816.1 322.64 819.1 323.34 822.2 323.64C825.4 324.04 828.2 324.74 828.5 325.34C828.8 325.84 832.1 327.64 835.8 329.34C845.2 333.64 851.6 338.14 858.1 344.94C867 354.24 871.7 362.54 877.1 378.94C879.8 387.14 882.5 394.64 883 395.74C884.7 399.34 886.3 417.34 885.6 425.64C885 433.54 882.1 444.24 878.5 451.34C875.2 457.94 861.7 477.24 860.4 477.24C859.7 477.24 858.6 478.24 857.9 479.54C856.5 482.24 847.9 491.24 846.7 491.24C846.2 491.24 842.6 494.14 838.7 497.74C834.8 501.24 830.1 504.94 828.3 505.74C825 507.34 823.8 510.24 826.4 510.24C829.3 510.24 841.9 516.04 845.9 519.24C855.8 527.24 853.1 537.34 836.8 553.14C828.8 561.04 813.5 573.24 811.7 573.24C811.3 573.24 809.4 574.34 807.6 575.74C803.1 579.14 783.6 588.24 780.7 588.24C779.5 588.24 778 588.64 777.4 589.14C776.3 590.24 760.9 594.04 752 595.44C745.3 596.44 716.3 597.24 710 596.64Z" fill="white"/>
<path d="M433.9 385.84C433.7 385.64 430.4 385.14 426.5 384.84C422.7 384.44 419.2 383.84 418.7 383.34C418.3 382.94 417.9 370.44 418 355.64C418.1 327.34 416.6 306.74 414.4 304.34C413.3 303.14 413 303.24 412.2 305.34C411.7 306.64 410.6 316.74 409.6 327.74C406.2 369.44 405.8 373.14 404.4 374.34C403.4 375.14 402.4 374.44 400.2 371.34C397.6 367.74 397.2 366.24 396.6 357.04C395.9 347.34 393.9 328.64 392.4 317.94C391.6 312.64 390.5 311.34 388.4 313.44C387.1 314.74 383 338.14 383 344.34C383 345.94 382.6 347.24 382 347.24C381.5 347.24 380.7 347.24 380.3 347.24C379.9 347.24 379.5 346.54 379.4 345.64C379.3 344.84 378 342.34 376.6 340.14C375.2 338.04 374 335.84 374 335.24C374 334.64 372.7 331.64 371.1 328.44C369.5 325.34 367.9 321.34 367.6 319.54C366.7 315.44 364.2 313.24 362.9 315.34C360.5 319.04 362.7 334.84 367.6 348.94C371.5 360.34 369.8 360.44 359.4 349.44C351.2 340.64 347.8 338.64 346.7 341.64C346.4 342.44 347 344.74 348.1 346.84C349.1 348.94 350 351.04 350 351.54C350 351.94 351.8 354.84 354.1 357.84C356.5 361.04 357.9 364.04 357.6 364.84C356 368.94 319.1 332.54 306.7 314.54C290.1 290.64 280.9 248.64 284.9 215.64C287.9 191.44 298.2 163.84 308.4 152.54C312.1 148.54 313.1 147.94 317.5 147.54C321.9 147.14 323.1 147.54 327.5 150.44C334.3 154.94 337.9 158.24 339.6 161.54C341.1 164.34 344.7 165.24 345.4 163.04C351.1 144.74 353.1 139.14 357.1 130.64C371.7 99.5395 392 80.7395 416.5 75.5395C425.5 73.6395 465.3 72.4395 467.4 74.0395C468.5 74.9395 481.3 77.6395 482.6 77.2395C483 77.1395 483.6 77.5395 483.9 78.0395C484.2 78.5395 487.8 80.6395 491.8 82.6395C497 85.2395 501.9 88.9395 508.2 95.0395C522.9 109.14 532.4 125.44 541 151.54C545.7 165.54 547.2 166.94 550.5 160.84C551.5 159.04 553.6 156.74 555.2 155.84C556.7 154.84 558 153.74 558 153.24C558 151.74 568.3 147.24 571.9 147.24C578.4 147.24 583.2 152.14 590.1 165.64C603.5 191.54 609 225.94 604.5 255.24C600.8 280.34 596.4 292.64 583.5 314.14C575.1 328.14 545.8 355.14 523 369.74C508.3 379.14 503.1 380.24 511.8 372.04C517.9 366.34 525.1 358.54 526.4 356.34C527 355.34 530.8 349.64 534.8 343.64C543.1 331.44 551.2 315.24 551.4 310.74C551.5 308.64 551 307.74 549.7 307.44C547.7 307.04 545.5 309.24 524.6 331.54C517.2 339.44 512 344.24 510.8 344.24C508.9 344.24 508.9 344.04 511.3 340.04C517.4 329.54 524 302.84 524 288.34C524 279.74 523.5 278.24 520.4 278.24C519.8 278.24 514.5 289.24 511.2 297.24C505.8 310.74 496.2 329.84 493.2 333.04C491.2 335.24 490.7 333.94 490.3 324.64C490.1 319.94 489.5 314.94 488.9 313.64C488.4 312.24 488 309.24 487.9 306.94C487.8 301.94 483 287.04 481.3 286.44C479.3 285.84 477 291.84 475.5 302.04C473.8 313.24 471.2 337.94 470 353.24C469 366.34 468.6 367.64 463.6 373.44C459.9 377.84 455.1 380.14 456.3 377.04C456.5 376.34 456.3 371.74 455.9 366.74C454.7 354.54 453.1 336.14 452 322.24C450.1 298.24 448.2 286.14 446.2 285.44C442.4 284.24 439.9 307.24 439.3 349.24C439 369.94 438.4 384.24 437.8 385.04C436.8 386.24 434.8 386.64 433.9 385.84Z" fill="white"/>
<path d="M433.3 662.639C429.5 661.039 425.7 656.139 424 650.839C422.8 647.039 422.9 644.139 425.1 633.239C426.3 626.539 428 614.939 428.3 610.339C428.5 607.039 428.4 606.939 420.7 603.639L412.9 600.339L411.2 602.439C410.3 603.539 408.3 605.939 406.8 607.739C405.2 609.539 404 611.439 404 611.939C404 612.539 403.1 613.739 402 614.739C400.9 615.739 400 616.939 400 617.539C400 618.039 399 619.739 397.8 621.339C396.5 622.839 393.3 627.039 390.5 630.639C387.8 634.339 385.2 637.239 384.9 637.239C384.6 637.239 382.6 638.639 380.5 640.239C374.9 644.739 370.2 644.439 364.7 639.339C360.7 635.539 360.5 635.039 360.6 629.839C360.6 625.139 361.2 623.539 364.6 618.539C366.7 615.339 372.3 608.639 377 603.639C381.7 598.639 387.2 592.139 389.2 589.239C393 584.039 393 584.039 391.2 581.039C390.3 579.439 389 577.639 388.4 577.139C387.1 576.139 377.8 579.239 372.5 582.339C370.9 583.339 367 585.539 364 587.239C361 588.939 356.3 591.639 353.5 593.339C345.2 598.339 338.1 601.239 334.2 601.239C327.4 601.239 320 594.139 320 587.539C320 584.539 329.7 574.039 334.1 572.239C335.7 571.539 337 570.639 337 570.139C337 569.639 338.1 569.239 339.4 569.239C340.8 569.239 342.2 568.839 342.5 568.239C342.8 567.739 344 567.239 345.1 567.239C346.1 567.239 347 566.839 347 566.239C347 565.739 348.1 565.239 349.4 565.239C350.8 565.239 352.2 564.839 352.5 564.239C352.8 563.739 354 563.239 355 563.239C356 563.239 357 562.939 357.2 562.539C357.4 562.039 362.1 559.539 367.8 556.739C377.7 551.939 378 551.639 377.5 548.839C377.2 547.239 377 543.939 377 541.339V536.739L371.8 535.339C368.9 534.539 363.5 533.739 359.7 533.439C356 533.239 353 532.639 353 532.139C353 531.639 347.2 531.239 340 531.239C332.8 531.239 326.2 530.839 325.2 530.339C324.3 529.839 322.2 528.839 320.6 528.139C317.9 526.839 313.2 522.739 310.3 518.939C308.4 516.539 308.7 514.639 311.5 510.239C314.7 505.239 320.4 502.239 326.7 502.339C332 502.339 342.4 504.339 343.6 505.539C344 505.939 345.7 506.239 347.5 506.239C349.2 506.239 351 506.639 351.6 507.139C352.8 508.339 360.4 509.239 372.3 509.639C381.2 509.839 382.2 509.739 383.2 507.939C384.1 506.239 383.5 505.239 378.9 501.139C375.9 498.439 372.7 496.039 371.8 495.739C370.8 495.339 370 494.739 370 494.239C370 493.839 367.6 492.239 364.6 490.839C361.6 489.339 358.7 487.539 358 486.739C357.3 485.939 356.2 485.239 355.5 485.239C354.8 485.239 353.7 484.539 353 483.739C352.3 482.939 351.4 482.439 351 482.739C350.6 483.039 349.7 482.539 349 481.739C348.3 480.939 347.3 480.239 346.8 480.239C345.7 480.239 342 477.539 335.9 472.339C331.9 468.939 328 462.439 328 459.239C328 456.739 333.1 449.539 335.7 448.339C339.3 446.739 346.2 447.039 350.1 448.939C352 449.839 356.1 452.639 359.4 455.139C362.6 457.739 368.7 462.339 372.9 465.539C377.1 468.739 381.3 472.039 382.3 472.839C383.3 473.639 385.2 474.839 386.6 475.439C387.9 476.039 389 476.939 389 477.339C389 477.739 390.6 478.939 392.5 479.839C394.4 480.739 396 481.839 396 482.239C396 482.639 397 483.239 398.2 483.539C399.8 484.039 401.9 483.039 405.8 480.139C410.7 476.339 411.1 475.839 410.5 472.939C409.9 469.839 408.7 466.639 406.9 463.039C406.4 462.039 406 460.839 406 460.239C406 459.639 404.2 455.239 401.9 450.439C399.6 445.639 397.7 441.239 397.6 440.639C397.5 439.939 397 438.839 396.4 438.139C395.9 437.339 394.9 435.539 394.2 434.039C387.9 419.739 388.4 413.839 396.2 407.039C400.9 402.839 402.7 402.539 406.9 404.739C413.9 408.339 419.6 416.939 422 427.239C422.7 430.239 423.6 433.739 424.1 435.039C424.6 436.339 425 438.439 425 439.739C425 441.039 425.5 442.439 426 442.739C426.6 443.039 427 444.239 427 445.339C427 446.339 427.4 448.039 427.9 449.039C428.3 449.939 430.4 454.139 432.4 458.339C435.9 465.839 438.3 468.339 440.3 466.339C442.5 464.139 445.3 440.339 445.5 423.239C445.7 404.439 445.6 405.039 450.1 399.839C454.9 394.339 459.3 391.839 462.5 392.639C466 393.539 470.8 398.039 473.1 402.539C475.4 406.839 475.3 412.539 473 424.239C472.4 427.239 471.6 432.239 471.3 435.239C471.1 438.239 470.4 441.139 469.9 441.639C469.4 442.239 469 445.139 469 448.139C469 451.239 468.5 456.439 468 459.739C467.5 463.039 467.2 466.439 467.5 467.239C467.9 468.639 479.7 473.939 480.4 473.139C480.6 472.939 483.2 469.739 486.4 466.039C489.5 462.339 492 459.039 492 458.639C492 458.339 493.1 456.739 494.5 455.039C495.9 453.439 497 451.539 497 450.839C497 450.139 497.9 448.739 499 447.739C500.1 446.739 501 445.539 501 445.039C501 442.339 513.1 429.439 518.2 426.739C524.5 423.339 533.1 425.839 535.6 431.839C538.9 439.739 536.6 445.639 524.5 459.739C521.7 463.039 517.1 468.939 514.3 472.739C511.4 476.639 508.2 480.339 507.1 481.039C505.1 482.139 504.1 486.239 505.8 486.239C506.2 486.239 509 484.639 512 482.639C520.7 476.939 542 466.439 547.5 465.139C552.1 464.139 553 464.239 557 466.239C562.9 469.239 564.9 471.939 565 476.739C565 485.239 556.7 492.739 540.3 499.339C539 499.839 536.9 500.739 535.5 501.239C534.1 501.839 532 502.639 530.8 503.139C529.5 503.639 525.4 505.439 521.6 507.139C515.1 510.139 514.8 510.439 515.5 513.039C516.2 515.739 517.5 522.639 518.6 529.439C519.4 533.939 522.2 535.239 533.1 535.739C537 535.939 540.5 536.439 540.8 536.739C541.1 537.039 545.7 537.239 551.1 537.239C559.5 537.239 561.8 537.639 566.7 539.839C573.2 542.639 576.4 545.239 578.5 549.639C580.7 554.039 580.4 555.139 575.3 559.939C568.9 566.039 565.6 567.539 560.6 566.839C558.4 566.439 554.7 565.939 552.5 565.639C550.3 565.339 547.8 564.839 547 564.539C546.2 564.139 540.6 563.139 534.5 562.139C528.5 561.239 522 560.139 520.3 559.739C517.4 559.039 517 559.239 517 561.039C517 562.239 518.1 563.439 520 564.239C521.7 564.939 526 567.739 529.6 570.339C533.2 573.039 536.3 575.239 536.6 575.239C538.8 575.239 551.8 586.439 554.8 590.939C559 597.039 558.7 600.239 553.7 605.639C549.7 609.939 549 610.239 544.4 610.239C538.3 610.239 532.4 607.239 522.1 598.839C517.9 595.439 512.9 591.539 511 590.239C509.1 588.939 507.3 587.539 507 587.139C506.7 586.839 505.6 586.039 504.4 585.439C502.7 584.539 501.9 584.839 499.8 587.039C498.4 588.539 494.3 592.039 490.7 594.739C485.5 598.639 484.1 600.339 484.1 602.439C484 603.939 484.5 605.439 485 605.739C485.6 606.039 486 607.339 486.1 608.539C486.1 609.739 487 612.139 488.1 613.739C489.1 615.439 490.3 617.439 490.6 618.239C491.2 619.639 492.9 623.539 496.9 632.539C499.4 638.139 501 643.139 501 645.439C501 650.539 494 659.739 489.2 660.939C484.8 662.039 475.2 654.839 472.3 648.239C469.2 641.139 467 634.739 467 632.539C467 631.339 465.4 627.139 463.5 623.139C461.6 619.039 460 615.039 460 614.239C460 613.339 459.3 611.739 458.5 610.639C457.3 609.139 456.9 609.039 456.2 610.039C455.1 611.639 453.6 630.439 453.9 638.239C454.2 645.739 452.3 651.939 448.3 657.039C444.9 661.239 440.3 664.339 437.8 664.139C437.1 664.139 435.1 663.439 433.3 662.639ZM457.9 569.639C463.1 567.539 470.4 561.639 473.2 557.539C477.8 550.539 480.3 541.939 479.7 535.239C478.4 520.939 469.5 509.839 456 505.839C448.6 503.639 442.7 503.839 434.5 506.439C423.5 509.939 415.8 519.039 413 531.739C411 540.839 415 554.239 421.9 561.039C426.4 565.539 434.5 570.039 440.2 571.139C445.4 572.139 453.2 571.539 457.9 569.639Z" fill="#191919"/>
<path d="M1062.65 317.258C1062.65 307.167 1064.44 298.866 1068.02 292.355C1071.93 285.845 1077.14 280.637 1083.65 276.73C1090.16 272.499 1097.32 269.406 1105.13 267.453C1113.27 265.5 1121.57 264.198 1130.03 263.547C1138.82 262.57 1147.29 262.245 1155.42 262.57C1163.56 262.57 1171.05 262.57 1177.89 262.57C1191.23 262.57 1204.58 263.872 1217.92 266.477C1231.27 269.081 1242.99 273.638 1253.08 280.148C1263.5 286.659 1271.96 295.448 1278.47 306.516C1284.98 317.258 1288.24 330.767 1288.24 347.043C1288.24 361.366 1285.31 375.689 1279.45 390.012C1273.91 404.009 1266.59 417.518 1257.48 430.539C1248.69 443.234 1238.6 454.953 1227.2 465.695C1215.81 476.112 1204.42 485.064 1193.02 492.551C1181.95 500.038 1171.21 505.897 1160.8 510.129C1150.7 514.361 1142.24 515.988 1135.41 515.012C1131.5 527.707 1129.06 541.379 1128.08 556.027C1127.43 570.35 1127.27 584.51 1127.59 598.508C1127.92 612.18 1128.41 625.363 1129.06 638.059C1129.71 650.428 1129.06 661.171 1127.1 670.285C1125.48 679.074 1122.22 685.747 1117.34 690.305C1112.46 694.536 1104.97 695.839 1094.88 694.211C1091.95 671.099 1089.67 647.661 1088.04 623.898C1086.74 600.135 1085.6 576.535 1084.62 553.098C1083.65 529.66 1082.67 506.874 1081.69 484.738C1081.04 462.277 1079.9 440.956 1078.28 420.773C1076.97 400.591 1075.02 381.711 1072.42 364.133C1069.81 346.555 1066.56 330.93 1062.65 317.258ZM1183.26 304.562C1178.37 304.562 1172.35 304.725 1165.19 305.051C1158.03 305.376 1151.03 306.516 1144.19 308.469C1137.68 310.096 1132.15 313.189 1127.59 317.746C1123.04 321.978 1120.76 328.163 1120.76 336.301V464.23C1134.1 464.23 1148.26 460.65 1163.24 453.488C1178.21 446.327 1191.88 437.212 1204.25 426.145C1216.62 415.077 1226.88 402.544 1235.01 388.547C1243.15 374.549 1247.22 360.715 1247.22 347.043C1247.22 336.952 1245.27 329.139 1241.36 323.605C1237.78 318.072 1232.9 313.84 1226.71 310.91C1220.85 307.98 1214.18 306.19 1206.69 305.539C1199.21 304.888 1191.39 304.562 1183.26 304.562ZM1322.42 385.617C1322.42 382.036 1322.74 377.642 1323.39 372.434C1324.37 366.9 1325.83 361.691 1327.79 356.809C1330.07 351.926 1332.83 347.857 1336.09 344.602C1339.34 341.021 1343.58 339.23 1348.78 339.23C1349.11 339.23 1349.92 339.393 1351.23 339.719C1352.53 340.044 1353.34 340.207 1353.67 340.207C1359.2 360.389 1362.46 380.409 1363.43 400.266C1364.41 420.122 1364.08 439.491 1362.46 458.371C1360.83 476.926 1358.39 494.992 1355.13 512.57C1351.88 529.823 1349.11 545.773 1346.83 560.422C1344.88 575.07 1343.58 588.254 1342.92 599.973C1342.6 611.691 1344.39 621.62 1348.3 629.758C1347.64 624.549 1347.16 618.365 1346.83 611.203C1346.83 603.716 1347.48 596.066 1348.78 588.254C1350.41 580.441 1352.85 572.629 1356.11 564.816C1359.69 557.004 1364.73 550.005 1371.25 543.82C1377.76 537.635 1386.06 532.753 1396.15 529.172C1406.56 525.591 1419.42 523.801 1434.72 523.801C1450.67 523.801 1464.34 526.568 1475.74 532.102C1487.46 537.635 1497.06 545.285 1504.55 555.051C1512.03 564.491 1517.57 575.721 1521.15 588.742C1525.05 601.438 1527.01 615.109 1527.01 629.758C1527.01 636.594 1526.84 644.406 1526.52 653.195C1526.52 661.659 1525.38 669.634 1523.1 677.121C1521.15 684.283 1517.4 690.467 1511.87 695.676C1506.66 700.559 1498.85 703 1488.43 703C1488.43 697.792 1488.76 690.793 1489.41 682.004C1490.06 672.889 1490.39 663.286 1490.39 653.195C1490.71 643.104 1490.39 632.85 1489.41 622.434C1488.76 612.017 1486.64 602.74 1483.06 594.602C1479.48 586.138 1474.44 579.302 1467.92 574.094C1461.74 568.56 1453.11 565.793 1442.05 565.793C1438.14 565.793 1433.26 566.118 1427.4 566.77C1421.86 567.095 1416.17 568.56 1410.31 571.164C1404.45 573.768 1398.75 577.837 1393.22 583.371C1387.68 588.579 1383.29 595.904 1380.03 605.344C1376.78 614.458 1374.83 626.177 1374.17 640.5C1373.85 654.497 1375.64 671.75 1379.55 692.258C1377.27 698.117 1374.34 701.535 1370.76 702.512C1367.5 703.488 1363.27 703.977 1358.06 703.977C1347.64 703.977 1339.02 700.396 1332.18 693.234C1325.67 685.747 1320.63 675.819 1317.05 663.449C1313.47 651.079 1311.02 636.757 1309.72 620.48C1308.75 604.204 1308.42 587.277 1308.75 569.699C1309.07 551.796 1309.88 533.729 1311.19 515.5C1312.81 496.945 1314.28 479.53 1315.58 463.254C1317.21 446.652 1318.67 431.678 1319.98 418.332C1321.6 404.66 1322.42 393.755 1322.42 385.617ZM1546.54 603.879C1546.54 583.697 1551.26 564.979 1560.7 547.727C1570.14 530.148 1582.51 515.174 1597.81 502.805C1613.43 490.109 1630.85 480.181 1650.05 473.02C1669.58 465.858 1689.28 462.277 1709.14 462.277C1720.2 462.277 1729.97 465.858 1738.43 473.02C1747.22 480.181 1754.55 488.97 1760.41 499.387C1766.26 509.478 1770.66 520.22 1773.59 531.613C1776.84 543.007 1778.47 552.935 1778.47 561.398C1778.47 579.628 1774.08 597.368 1765.29 614.621C1756.5 631.548 1745.11 646.685 1731.11 660.031C1717.11 673.052 1701.32 683.632 1683.75 691.77C1666.17 699.908 1648.59 703.977 1631.01 703.977C1615.39 703.977 1602.2 701.372 1591.46 696.164C1580.72 690.63 1572.09 683.469 1565.58 674.68C1559.07 665.565 1554.19 654.986 1550.93 642.941C1548 630.572 1546.54 617.551 1546.54 603.879ZM1588.04 608.762C1588.04 617.225 1588.69 624.712 1590 631.223C1591.62 637.408 1594.23 642.779 1597.81 647.336C1601.71 651.893 1606.76 655.474 1612.94 658.078C1619.13 660.357 1626.78 661.496 1635.89 661.496C1647.94 661.496 1659.98 658.241 1672.03 651.73C1684.07 644.895 1694.81 636.431 1704.25 626.34C1714.02 615.923 1721.83 604.53 1727.69 592.16C1733.55 579.79 1736.48 567.746 1736.48 556.027C1736.48 550.819 1735.99 545.122 1735.01 538.938C1734.04 532.753 1732.41 527.056 1730.13 521.848C1727.85 516.639 1724.6 512.245 1720.37 508.664C1716.13 505.083 1710.76 503.293 1704.25 503.293C1698.39 503.293 1691.39 505.246 1683.26 509.152C1675.44 513.059 1667.14 518.104 1658.35 524.289C1649.89 530.474 1641.43 537.473 1632.96 545.285C1624.83 553.098 1617.34 560.91 1610.5 568.723C1603.67 576.535 1598.13 584.022 1593.9 591.184C1590 598.345 1588.04 604.204 1588.04 608.762ZM1797.51 603.879C1797.51 583.697 1802.23 564.979 1811.67 547.727C1821.11 530.148 1833.48 515.174 1848.78 502.805C1864.41 490.109 1881.82 480.181 1901.03 473.02C1920.56 465.858 1940.26 462.277 1960.11 462.277C1971.18 462.277 1980.95 465.858 1989.41 473.02C1998.2 480.181 2005.52 488.97 2011.38 499.387C2017.24 509.478 2021.64 520.22 2024.57 531.613C2027.82 543.007 2029.45 552.935 2029.45 561.398C2029.45 579.628 2025.05 597.368 2016.26 614.621C2007.48 631.548 1996.08 646.685 1982.08 660.031C1968.09 673.052 1952.3 683.632 1934.72 691.77C1917.14 699.908 1899.57 703.977 1881.99 703.977C1866.36 703.977 1853.18 701.372 1842.44 696.164C1831.69 690.63 1823.07 683.469 1816.56 674.68C1810.05 665.565 1805.16 654.986 1801.91 642.941C1798.98 630.572 1797.51 617.551 1797.51 603.879ZM1839.02 608.762C1839.02 617.225 1839.67 624.712 1840.97 631.223C1842.6 637.408 1845.2 642.779 1848.78 647.336C1852.69 651.893 1857.74 655.474 1863.92 658.078C1870.11 660.357 1877.76 661.496 1886.87 661.496C1898.91 661.496 1910.96 658.241 1923 651.73C1935.05 644.895 1945.79 636.431 1955.23 626.34C1965 615.923 1972.81 604.53 1978.67 592.16C1984.53 579.79 1987.46 567.746 1987.46 556.027C1987.46 550.819 1986.97 545.122 1985.99 538.938C1985.01 532.753 1983.39 527.056 1981.11 521.848C1978.83 516.639 1975.57 512.245 1971.34 508.664C1967.11 505.083 1961.74 503.293 1955.23 503.293C1949.37 503.293 1942.37 505.246 1934.23 509.152C1926.42 513.059 1918.12 518.104 1909.33 524.289C1900.87 530.474 1892.4 537.473 1883.94 545.285C1875.8 553.098 1868.32 560.91 1861.48 568.723C1854.64 576.535 1849.11 584.022 1844.88 591.184C1840.97 598.345 1839.02 604.204 1839.02 608.762ZM2060.21 426.633C2060.21 417.193 2059.56 408.078 2058.26 399.289C2056.95 390.174 2056.63 382.199 2057.28 375.363C2057.93 368.202 2060.37 362.505 2064.6 358.273C2069.16 354.042 2077.3 351.926 2089.02 351.926C2092.6 359.413 2096.02 370.806 2099.27 386.105C2102.85 401.405 2106.27 418.983 2109.53 438.84C2112.78 458.697 2115.87 480.344 2118.8 503.781C2121.73 526.893 2124.34 550.168 2126.62 573.605C2129.22 597.043 2131.34 620.155 2132.96 642.941C2134.92 665.402 2136.38 685.91 2137.36 704.465C2126.62 711.626 2117.99 712.115 2111.48 705.93C2104.97 699.745 2099.6 689.328 2095.37 674.68C2091.13 659.706 2087.88 641.639 2085.6 620.48C2083.32 598.996 2081.04 576.861 2078.76 554.074C2076.81 530.962 2074.37 508.339 2071.44 486.203C2068.51 463.742 2064.77 443.885 2060.21 426.633ZM2157.87 317.258C2157.87 307.167 2159.66 298.866 2163.24 292.355C2167.14 285.845 2172.35 280.637 2178.86 276.73C2185.37 272.499 2192.53 269.406 2200.35 267.453C2208.48 265.5 2216.79 264.198 2225.25 263.547C2234.04 262.57 2242.5 262.245 2250.64 262.57C2258.78 262.57 2266.26 262.57 2273.1 262.57C2286.45 262.57 2299.79 263.872 2313.14 266.477C2326.49 269.081 2338.2 273.638 2348.3 280.148C2358.71 286.659 2367.18 295.448 2373.69 306.516C2380.2 317.258 2383.45 330.767 2383.45 347.043C2383.45 361.366 2380.52 375.689 2374.66 390.012C2369.13 404.009 2361.81 417.518 2352.69 430.539C2343.9 443.234 2333.81 454.953 2322.42 465.695C2311.02 476.112 2299.63 485.064 2288.24 492.551C2277.17 500.038 2266.43 505.897 2256.01 510.129C2245.92 514.361 2237.46 515.988 2230.62 515.012C2226.71 527.707 2224.27 541.379 2223.3 556.027C2222.64 570.35 2222.48 584.51 2222.81 598.508C2223.13 612.18 2223.62 625.363 2224.27 638.059C2224.92 650.428 2224.27 661.171 2222.32 670.285C2220.69 679.074 2217.44 685.747 2212.55 690.305C2207.67 694.536 2200.18 695.839 2190.09 694.211C2187.16 671.099 2184.88 647.661 2183.26 623.898C2181.95 600.135 2180.82 576.535 2179.84 553.098C2178.86 529.66 2177.89 506.874 2176.91 484.738C2176.26 462.277 2175.12 440.956 2173.49 420.773C2172.19 400.591 2170.24 381.711 2167.63 364.133C2165.03 346.555 2161.77 330.93 2157.87 317.258ZM2278.47 304.562C2273.59 304.562 2267.57 304.725 2260.41 305.051C2253.24 305.376 2246.25 306.516 2239.41 308.469C2232.9 310.096 2227.36 313.189 2222.81 317.746C2218.25 321.978 2215.97 328.163 2215.97 336.301V464.23C2229.32 464.23 2243.48 460.65 2258.45 453.488C2273.43 446.327 2287.1 437.212 2299.47 426.145C2311.84 415.077 2322.09 402.544 2330.23 388.547C2338.37 374.549 2342.44 360.715 2342.44 347.043C2342.44 336.952 2340.48 329.139 2336.58 323.605C2333 318.072 2328.11 313.84 2321.93 310.91C2316.07 307.98 2309.4 306.19 2301.91 305.539C2294.42 304.888 2286.61 304.562 2278.47 304.562ZM2613.43 640.012C2601.06 648.475 2590.32 656.125 2581.21 662.961C2572.42 669.471 2563.79 675.005 2555.33 679.562C2546.86 684.12 2537.75 687.538 2527.98 689.816C2518.54 692.095 2506.82 693.234 2492.83 693.234C2462.55 693.234 2440.09 685.259 2425.44 669.309C2410.8 653.033 2403.47 628.944 2403.47 597.043C2403.47 584.673 2405.1 571.815 2408.35 558.469C2411.61 545.122 2416.33 531.939 2422.51 518.918C2429.03 505.572 2436.67 493.039 2445.46 481.32C2454.25 469.276 2464.18 458.697 2475.25 449.582C2486.32 440.467 2498.04 433.306 2510.41 428.098C2523.1 422.564 2536.45 419.797 2550.44 419.797C2573.88 422.076 2592.27 427.935 2605.62 437.375C2618.97 446.49 2629.06 458.371 2635.89 473.02C2642.73 487.342 2647.45 503.456 2650.05 521.359C2652.66 538.938 2654.61 557.167 2655.91 576.047C2657.54 594.927 2659.49 613.807 2661.77 632.688C2664.05 651.568 2668.77 668.983 2675.93 684.934C2671.7 695.676 2667.63 703.163 2663.73 707.395C2660.14 711.952 2656.08 712.766 2651.52 709.836C2646.96 706.906 2641.59 699.745 2635.41 688.352C2629.55 676.958 2622.22 660.845 2613.43 640.012ZM2444.98 598.02C2444.98 616.574 2448.39 630.246 2455.23 639.035C2462.39 647.499 2474.92 651.73 2492.83 651.73C2506.17 651.73 2518.87 649.452 2530.91 644.895C2543.28 640.012 2554.03 633.501 2563.14 625.363C2572.25 616.9 2579.58 606.809 2585.11 595.09C2590.65 583.371 2593.41 570.35 2593.41 556.027C2593.41 550.168 2593.58 542.03 2593.9 531.613C2594.23 520.871 2593.58 510.292 2591.95 499.875C2590.32 489.458 2587.23 480.507 2582.67 473.02C2578.11 465.207 2571.28 461.301 2562.16 461.301C2545.24 461.301 2529.61 465.695 2515.29 474.484C2500.97 482.948 2488.6 493.853 2478.18 507.199C2467.76 520.546 2459.62 535.357 2453.76 551.633C2447.91 567.583 2444.98 583.046 2444.98 598.02ZM2695.95 456.906C2695.95 455.93 2696.11 455.116 2696.44 454.465C2696.44 453.814 2696.6 453 2696.93 452.023C2698.23 450.396 2700.18 448.28 2702.79 445.676C2705.39 443.072 2707.02 441.77 2707.67 441.77H2805.82C2805.82 438.189 2805.33 432.492 2804.35 424.68C2803.37 416.867 2802.4 408.241 2801.42 398.801C2800.77 389.361 2800.61 379.595 2800.93 369.504C2801.26 359.087 2802.56 349.81 2804.84 341.672C2807.44 333.208 2811.35 326.372 2816.56 321.164C2822.09 315.63 2829.74 312.863 2839.51 312.863C2839.51 345.741 2841.79 372.108 2846.34 391.965C2850.9 411.822 2856.92 427.121 2864.41 437.863C2872.22 448.605 2881.01 455.604 2890.78 458.859C2900.54 462.115 2910.47 463.579 2920.56 463.254C2930.98 462.603 2941.07 460.975 2950.83 458.371C2960.6 455.767 2969.23 453.977 2976.71 453C2984.53 452.023 2990.71 452.837 2995.27 455.441C2999.83 457.72 3002.1 463.417 3002.1 472.531C3002.1 479.367 3000.48 484.25 2997.22 487.18C2994.29 490.109 2988.43 492.388 2979.64 494.016C2977.04 494.341 2972.64 494.992 2966.46 495.969C2960.6 496.62 2953.93 497.271 2946.44 497.922C2938.95 498.573 2930.98 499.387 2922.51 500.363C2914.05 501.014 2906.08 501.665 2898.59 502.316C2891.1 502.967 2884.27 503.456 2878.08 503.781C2871.9 503.781 2867.34 503.781 2864.41 503.781C2864.41 505.409 2864.25 508.176 2863.92 512.082C2863.6 515.988 2863.43 518.592 2863.43 519.895C2863.43 534.217 2865.71 548.215 2870.27 561.887C2874.83 575.233 2879.71 588.579 2884.92 601.926C2890.45 615.272 2895.5 628.618 2900.05 641.965C2904.61 655.311 2906.89 669.146 2906.89 683.469C2906.89 686.073 2906.56 688.84 2905.91 691.77C2905.59 694.374 2904.61 696.815 2902.98 699.094C2901.68 701.047 2899.57 702.512 2896.64 703.488C2894.03 704.79 2890.29 704.628 2885.41 703C2873.04 699.745 2863.76 692.746 2857.57 682.004C2851.71 671.262 2847.32 658.566 2844.39 643.918C2841.46 628.944 2839.51 613.156 2838.53 596.555C2837.55 579.953 2835.93 564.491 2833.65 550.168C2831.69 535.52 2828.44 523.15 2823.88 513.059C2819.32 502.642 2812 496.294 2801.91 494.016L2707.67 472.531C2706.37 472.531 2704.42 471.229 2701.81 468.625C2699.21 465.695 2697.58 463.579 2696.93 462.277C2696.6 461.626 2696.44 460.812 2696.44 459.836C2696.11 459.185 2695.95 458.208 2695.95 456.906ZM3009.92 456.906C3009.92 455.93 3010.08 455.116 3010.41 454.465C3010.41 453.814 3010.57 453 3010.89 452.023C3012.2 450.396 3014.15 448.28 3016.75 445.676C3019.36 443.072 3020.98 441.77 3021.64 441.77H3119.78C3119.78 438.189 3119.29 432.492 3118.32 424.68C3117.34 416.867 3116.36 408.241 3115.39 398.801C3114.73 389.361 3114.57 379.595 3114.9 369.504C3115.22 359.087 3116.53 349.81 3118.8 341.672C3121.41 333.208 3125.31 326.372 3130.52 321.164C3136.06 315.63 3143.71 312.863 3153.47 312.863C3153.47 345.741 3155.75 372.108 3160.31 391.965C3164.86 411.822 3170.89 427.121 3178.37 437.863C3186.19 448.605 3194.98 455.604 3204.74 458.859C3214.51 462.115 3224.44 463.579 3234.53 463.254C3244.94 462.603 3255.03 460.975 3264.8 458.371C3274.57 455.767 3283.19 453.977 3290.68 453C3298.49 452.023 3304.68 452.837 3309.23 455.441C3313.79 457.72 3316.07 463.417 3316.07 472.531C3316.07 479.367 3314.44 484.25 3311.19 487.18C3308.26 490.109 3302.4 492.388 3293.61 494.016C3291 494.341 3286.61 494.992 3280.42 495.969C3274.57 496.62 3267.89 497.271 3260.41 497.922C3252.92 498.573 3244.94 499.387 3236.48 500.363C3228.02 501.014 3220.04 501.665 3212.55 502.316C3205.07 502.967 3198.23 503.456 3192.05 503.781C3185.86 503.781 3181.3 503.781 3178.37 503.781C3178.37 505.409 3178.21 508.176 3177.89 512.082C3177.56 515.988 3177.4 518.592 3177.4 519.895C3177.4 534.217 3179.68 548.215 3184.23 561.887C3188.79 575.233 3193.67 588.579 3198.88 601.926C3204.42 615.272 3209.46 628.618 3214.02 641.965C3218.58 655.311 3220.85 669.146 3220.85 683.469C3220.85 686.073 3220.53 688.84 3219.88 691.77C3219.55 694.374 3218.58 696.815 3216.95 699.094C3215.65 701.047 3213.53 702.512 3210.6 703.488C3208 704.79 3204.25 704.628 3199.37 703C3187 699.745 3177.72 692.746 3171.54 682.004C3165.68 671.262 3161.28 658.566 3158.35 643.918C3155.42 628.944 3153.47 613.156 3152.5 596.555C3151.52 579.953 3149.89 564.491 3147.61 550.168C3145.66 535.52 3142.4 523.15 3137.85 513.059C3133.29 502.642 3125.97 496.294 3115.87 494.016L3021.64 472.531C3020.33 472.531 3018.38 471.229 3015.78 468.625C3013.17 465.695 3011.54 463.579 3010.89 462.277C3010.57 461.626 3010.41 460.812 3010.41 459.836C3010.08 459.185 3009.92 458.208 3009.92 456.906ZM3334.62 567.258C3334.62 549.68 3336.74 532.102 3340.97 514.523C3345.2 496.945 3351.88 481.158 3360.99 467.16C3370.43 453.163 3382.48 441.77 3397.12 432.98C3412.1 424.191 3430.16 419.797 3451.32 419.797C3463.37 419.797 3473.95 422.076 3483.06 426.633C3492.18 430.865 3499.83 436.561 3506.01 443.723C3512.2 450.884 3516.75 459.348 3519.68 469.113C3522.94 478.553 3524.57 488.482 3524.57 498.898C3524.57 515.5 3520.66 531.613 3512.85 547.238C3505.36 562.863 3495.11 576.698 3482.08 588.742C3469.39 600.461 3454.74 609.413 3438.14 615.598C3421.54 621.457 3404.61 622.759 3387.36 619.504C3387.68 628.944 3390.78 636.594 3396.64 642.453C3402.82 647.987 3410.14 652.219 3418.61 655.148C3427.07 658.078 3435.86 660.031 3444.98 661.008C3454.09 661.659 3462.23 661.984 3469.39 661.984C3476.88 661.984 3483.88 661.333 3490.39 660.031C3496.9 658.729 3503.41 657.264 3509.92 655.637C3516.43 654.009 3522.94 652.544 3529.45 651.242C3536.28 649.94 3543.45 649.289 3550.93 649.289C3553.86 649.289 3556.79 649.452 3559.72 649.777C3562.65 650.103 3565.42 650.917 3568.02 652.219C3570.63 653.195 3572.74 654.986 3574.37 657.59C3576 659.868 3576.81 662.798 3576.81 666.379C3576.81 672.564 3574.53 677.772 3569.98 682.004C3565.42 685.91 3559.56 689.328 3552.4 692.258C3545.56 695.188 3537.91 697.466 3529.45 699.094C3520.98 700.396 3512.68 701.535 3504.55 702.512C3496.73 703.163 3489.41 703.488 3482.57 703.488C3476.06 703.814 3471.18 703.977 3467.92 703.977C3447.09 703.977 3428.37 700.721 3411.77 694.211C3395.17 687.375 3381.17 678.098 3369.78 666.379C3358.39 654.335 3349.6 640.012 3343.41 623.41C3337.55 606.483 3334.62 587.766 3334.62 567.258ZM3386.38 535.52C3386.38 546.913 3387.85 555.214 3390.78 560.422C3394.03 565.63 3401.68 568.234 3413.73 568.234C3422.19 568.234 3430.49 566.77 3438.63 563.84C3446.77 560.585 3454.09 556.19 3460.6 550.656C3467.44 545.122 3472.81 538.612 3476.71 531.125C3480.62 523.638 3482.57 515.5 3482.57 506.711C3482.57 501.828 3482.08 496.783 3481.11 491.574C3480.46 486.366 3478.83 481.646 3476.23 477.414C3473.62 472.857 3470.2 469.276 3465.97 466.672C3462.07 463.742 3456.86 462.277 3450.35 462.277C3440.58 462.277 3431.63 464.556 3423.49 469.113C3415.68 473.345 3409.01 479.042 3403.47 486.203C3397.94 493.039 3393.71 500.852 3390.78 509.641C3387.85 518.104 3386.38 526.73 3386.38 535.52Z" fill="white"/>
</svg>
